<svg xmlns="http://www.w3.org/2000/svg" viewBox="0 0 512 512" role="img" aria-label="Forkcast">
  <rect width="512" height="512" fill="#2377ad"/>
  <path fill="#d5a13a" d="M96 213C100 156 158 127 242 121C312 116 383 105 433 66C428 124 386 173 319 191C270 204 220 199 189 205C174 221 169 241 166 265C216 256 279 263 337 257C330 285 313 305 282 313C241 323 204 315 163 322C158 350 153 389 152 416C151 443 161 459 199 467L199 469L111 469C135 453 142 425 146 382C151 316 151 255 170 222C150 224 126 235 109 252C92 269 88 286 89 304C84 269 86 238 96 213Z"/>
</svg>
